<?xml version="1.0" encoding="UTF-8"?>
<svg id="Layer_1" data-name="Layer 1" xmlns="http://www.w3.org/2000/svg" viewBox="0 0 200 200">
  <path d="M3.05,93c-.4-.41-.6-.94-.6-1.58s.2-1.19.61-1.6c.41-.41.93-.62,1.55-.62s1.15.21,1.55.62c.41.41.61.95.61,1.6s-.2,1.16-.6,1.58-.92.62-1.57.62-1.17-.21-1.57-.62ZM3,95.15h3.29v14.06h-3.29v-14.06Z" fill="#fff"/>
  <path d="M21.7,96.59c1,1.12,1.51,2.67,1.51,4.66v7.82h-4.34v-7.57c0-.9-.22-1.6-.66-2.1s-1.05-.76-1.82-.76c-.85,0-1.53.29-2.05.87-.52.58-.77,1.34-.77,2.27v7.29h-4.34v-13.85h3.76l.28,1.63c.53-.62,1.17-1.09,1.92-1.43.75-.34,1.57-.5,2.47-.5,1.7,0,3.05.56,4.05,1.68Z" fill="#fff"/>
  <path d="M38.3,96.59c1.01,1.12,1.52,2.67,1.52,4.66v7.82h-4.38v-7.57c0-.9-.22-1.6-.67-2.1s-1.06-.76-1.84-.76c-.86,0-1.54.29-2.07.87-.52.58-.78,1.34-.78,2.27v7.29h-4.38v-13.85h3.8l.28,1.63c.54-.62,1.19-1.09,1.94-1.43.75-.34,1.59-.5,2.5-.5,1.71,0,3.07.56,4.09,1.68Z" fill="#fff"/>
  <path d="M45.23,108.35c-1.06-.6-1.87-1.44-2.44-2.52-.57-1.08-.85-2.33-.85-3.75s.28-2.68.85-3.75c.57-1.08,1.38-1.91,2.44-2.52,1.06-.6,2.3-.9,3.71-.9s2.65.3,3.72.9c1.07.6,1.89,1.44,2.46,2.52.57,1.08.85,2.33.85,3.75s-.28,2.68-.85,3.75c-.57,1.08-1.39,1.91-2.46,2.52-1.07.6-2.31.9-3.72.9s-2.65-.3-3.71-.9ZM51.11,104.58c.55-.65.83-1.48.83-2.5s-.28-1.85-.83-2.5c-.55-.65-1.28-.97-2.17-.97s-1.59.32-2.15.97c-.55.65-.83,1.48-.83,2.5s.28,1.85.83,2.5c.55.65,1.27.97,2.15.97s1.62-.32,2.17-.97Z" fill="#fff"/>
  <path d="M68.69,94.91h3.29c.07,0,.12.07.1.14l-5.15,13.53c-.12.31-.42.52-.75.52h-3.03c-.33,0-.63-.21-.75-.52l-5.18-13.53c-.03-.07.02-.14.1-.14h4.2s.08.03.1.07l1.5,4.21,1.48,4.82c.03.1.17.1.2,0l1.48-4.82,1.25-3.45c.18-.5.65-.83,1.18-.83Z" fill="#fff"/>
  <path d="M88.46,95.12v13.99h-3.74l-.28-1.67c-1.16,1.3-2.66,1.95-4.51,1.95-1.27,0-2.39-.31-3.37-.92-.98-.61-1.75-1.47-2.3-2.58-.55-1.1-.83-2.37-.83-3.78s.28-2.68.83-3.78c.55-1.1,1.32-1.96,2.3-2.58.98-.61,2.1-.92,3.37-.92.92,0,1.76.17,2.53.5.77.33,1.43.81,1.98,1.43l.28-1.64h3.74ZM82.07,104.43c.57-.59.85-1.37.85-2.34s-.28-1.74-.85-2.34-1.3-.89-2.2-.89-1.62.3-2.18.9c-.56.6-.84,1.38-.84,2.33s.28,1.72.84,2.33c.56.6,1.29.9,2.18.9s1.63-.3,2.2-.89Z" fill="#fff"/>
  <path d="M103.19,96.59c.98,1.12,1.47,2.68,1.47,4.66v7.84h-4.24v-7.59c0-.9-.22-1.6-.65-2.11s-1.03-.76-1.78-.76c-.83,0-1.49.29-2,.87-.5.58-.76,1.34-.76,2.28v7.31h-4.24v-13.88h3.67l.27,1.63c.52-.62,1.15-1.1,1.88-1.43.73-.34,1.53-.51,2.42-.51,1.66,0,2.97.56,3.96,1.69Z" fill="#fff"/>
  <path d="M116.45,108.38c-1.03.54-2.19.81-3.48.81-1.44,0-2.57-.42-3.4-1.27-.83-.85-1.25-2.21-1.25-4.08v-5.21h-2.23v-3.49h2.23v-3.43l4.15-.47v3.9h3.27v3.49h-3.27v5.21c0,.56.13.97.4,1.24.27.27.63.4,1.09.4.51,0,1.02-.13,1.51-.39l.98,3.29Z" fill="#fff"/>
  <path d="M118.42,92.75c-.38-.4-.57-.9-.57-1.51s.19-1.14.58-1.53c.38-.4.87-.59,1.46-.59s1.08.2,1.46.59c.38.4.58.91.58,1.53s-.19,1.11-.57,1.51-.87.59-1.47.59-1.1-.2-1.47-.59ZM118.17,95.18h3.45v13.88h-3.45v-13.88Z" fill="#fff"/>
  <path d="M123.6,107.65l1.68-3.09c.67.42,1.45.74,2.33.97.89.23,1.77.34,2.64.34,1.21,0,1.82-.33,1.82-1,0-.34-.17-.6-.5-.77s-.89-.29-1.68-.34c-1.75-.1-3.15-.54-4.18-1.35-1.03-.8-1.55-1.85-1.55-3.15,0-1.41.56-2.53,1.68-3.36,1.12-.83,2.63-1.25,4.53-1.25,1.08,0,2.11.13,3.09.4.98.27,1.82.64,2.53,1.12l-1.71,3.01c-1.04-.61-2.28-.92-3.72-.92s-2.12.34-2.12,1.03c0,.29.14.51.43.66.29.15.78.27,1.47.34,1.98.15,3.48.61,4.52,1.37,1.03.76,1.55,1.83,1.55,3.21,0,1.45-.57,2.59-1.71,3.42-1.14.83-2.71,1.25-4.73,1.25-2.44,0-4.57-.63-6.37-1.89Z" fill="#fff"/>
  <path d="M137.63,107.63l1.62-3.12c.65.42,1.4.75,2.26.98.86.23,1.71.35,2.55.35,1.17,0,1.76-.34,1.76-1.01,0-.35-.16-.61-.49-.78s-.86-.29-1.62-.35c-1.69-.1-3.04-.55-4.04-1.36-1-.81-1.5-1.87-1.5-3.18,0-1.43.54-2.56,1.62-3.4,1.08-.84,2.54-1.26,4.38-1.26,1.04,0,2.04.14,2.99.4.95.27,1.76.65,2.45,1.13l-1.65,3.04c-1.01-.62-2.21-.93-3.59-.93s-2.05.35-2.05,1.04c0,.29.14.51.42.67.28.15.75.27,1.42.35,1.91.15,3.37.62,4.36,1.39,1,.77,1.5,1.85,1.5,3.24,0,1.47-.55,2.62-1.65,3.46-1.1.84-2.62,1.26-4.57,1.26-2.36,0-4.41-.64-6.16-1.91Z" fill="#fff"/>
  <path d="M152.33,92.75c-.4-.4-.6-.9-.6-1.51s.2-1.14.61-1.53c.41-.4.93-.59,1.56-.59s1.15.2,1.56.59c.41.4.61.91.61,1.53s-.2,1.11-.6,1.51-.92.59-1.57.59-1.17-.2-1.57-.59ZM152.24,95.19h3.41v13.86h-3.41v-13.86Z" fill="#fff"/>
  <path d="M178.85,96.49c.97,1.03,1.46,2.45,1.46,4.25v8.41h-4.24v-7.85c0-.83-.19-1.47-.55-1.93-.37-.46-.89-.69-1.55-.69-.74,0-1.32.26-1.76.79-.43.53-.65,1.22-.65,2.08v7.6h-4.22v-7.85c0-.83-.18-1.47-.54-1.93-.36-.46-.87-.69-1.54-.69-.74,0-1.33.26-1.77.79-.44.53-.66,1.22-.66,2.08v7.6h-4.24v-13.9h3.68l.24,1.55c.47-.6,1.03-1.06,1.69-1.38.66-.32,1.36-.48,2.12-.48.86,0,1.64.19,2.32.58.68.38,1.22.91,1.62,1.59,1.08-1.44,2.61-2.17,4.59-2.17,1.69,0,3.03.52,4,1.55Z" fill="#fff"/>
  <path d="M186.44,108.26c-1.08-.6-1.91-1.43-2.49-2.49-.58-1.06-.87-2.3-.87-3.72s.29-2.65.87-3.72c.58-1.06,1.41-1.9,2.49-2.49,1.08-.6,2.34-.89,3.79-.89s2.71.3,3.8.89c1.09.6,1.93,1.43,2.51,2.49.58,1.06.87,2.3.87,3.72s-.29,2.65-.87,3.72c-.58,1.06-1.42,1.9-2.51,2.49-1.09.6-2.36.89-3.8.89s-2.71-.3-3.79-.89ZM193.09,104.94c.68-.74,1.02-1.7,1.02-2.87s-.34-2.13-1.02-2.87c-.68-.74-1.57-1.12-2.67-1.12s-1.96.37-2.64,1.12c-.68.74-1.02,1.7-1.02,2.87s.34,2.13,1.02,2.87c.68.74,1.56,1.12,2.64,1.12s2-.37,2.67-1.12Z" fill="#fff"/>
  <circle cx="163.48" cy="118.82" r="4.63" fill="#fff"/>
  <circle cx="178.06" cy="118.82" r="4.63" fill="#02600a"/>
  <circle cx="192.93" cy="118.82" r="4.63" fill="#ff0004"/>
  <g>
    <path d="M155.51,122.93h-.42v-6.93h.42v6.93Z" fill="#fff"/>
    <path d="M153.53,122.15c.07.07.1.16.1.26s-.03.19-.1.27c-.07.07-.16.11-.27.11-.11,0-.19-.04-.27-.11-.07-.07-.11-.16-.11-.27s.04-.19.11-.26c.07-.07.16-.1.27-.1.11,0,.2.03.27.1ZM153.46,120.89h-.42v-4.89h.42v4.89Z" fill="#fff"/>
    <path d="M144.34,120.4c-.34-.37-.51-.89-.51-1.55v-2.85h.42v2.83c0,.55.13.98.4,1.28.26.3.64.45,1.13.45.31,0,.59-.08.85-.24s.45-.37.59-.65c.14-.27.21-.58.21-.93v-2.75h.42v2.83c0,.55.13.98.39,1.28.26.3.64.45,1.13.45.31,0,.59-.08.84-.24.25-.16.45-.37.59-.65.14-.27.21-.58.21-.93v-2.75h.42v4.89h-.4v-.92c-.18.31-.41.55-.71.73-.29.17-.61.26-.96.26-.44,0-.82-.1-1.12-.31-.31-.21-.52-.51-.65-.9-.17.38-.42.67-.74.89-.32.21-.68.32-1.08.32-.6,0-1.07-.19-1.41-.56Z" fill="#fff"/>
    <path d="M142.32,122.15c.07.07.1.16.1.26s-.03.19-.1.27c-.07.07-.16.11-.27.11-.11,0-.19-.04-.27-.11-.07-.07-.11-.16-.11-.27s.04-.19.11-.26c.07-.07.16-.1.27-.1.11,0,.2.03.27.1ZM142.25,120.89h-.42v-4.89h.42v4.89Z" fill="#fff"/>
    <path d="M137.29,116.18c.36-.18.69-.27,1-.27.49,0,.84.13,1.04.39.2.26.3.65.3,1.17v3.04h1.05v.39h-1.05v1.44l-.42.04v-1.48h-1.69v-.39h1.69v-3.04c0-.39-.06-.68-.19-.88-.13-.2-.37-.3-.73-.3-.11,0-.25.02-.41.07-.16.05-.3.1-.44.17l-.16-.35Z" fill="#fff"/>
    <path d="M136.28,122.93h-.42v-6.93h.42v6.93Z" fill="#fff"/>
    <path d="M130.81,120.68c-.37-.2-.66-.48-.86-.85-.2-.36-.3-.78-.3-1.26,0-.13,0-.22,0-.29h4.48c-.05-.61-.25-1.1-.62-1.45-.37-.36-.85-.53-1.43-.53-.36,0-.71.07-1.04.22-.33.14-.58.34-.76.57l-.3-.25c.23-.29.53-.52.9-.69.37-.17.77-.25,1.2-.25.47,0,.9.11,1.28.33.38.22.67.52.88.91.21.39.32.82.32,1.31s-.1.92-.31,1.31c-.21.38-.5.68-.87.9-.37.22-.8.33-1.27.33s-.92-.1-1.29-.3ZM133.52,120.06c.37-.35.58-.82.62-1.39h-4.09c0,.38.09.71.26,1,.17.29.42.52.72.68.31.16.66.24,1.06.24.57,0,1.05-.18,1.41-.53Z" fill="#fff"/>
    <path d="M127.95,116.16c.38.16.68.38.89.63l-.26.28c-.2-.23-.47-.42-.8-.55-.33-.14-.69-.21-1.07-.21-.48,0-.87.09-1.16.27-.29.18-.44.42-.44.73,0,.18.05.34.15.46.1.12.27.22.5.31.23.09.57.17,1.01.26.48.09.86.19,1.13.3.27.11.46.24.58.41.12.16.18.37.18.62,0,.41-.18.73-.53.97-.36.24-.84.36-1.44.36-.39,0-.73-.05-1.03-.16-.3-.11-.58-.27-.85-.48l.24-.3c.24.19.48.33.74.42.25.09.55.13.9.13.5,0,.89-.08,1.16-.25.27-.16.41-.4.41-.69,0-.18-.05-.32-.14-.43-.09-.11-.25-.2-.46-.28-.21-.08-.53-.16-.93-.24-.51-.09-.91-.2-1.19-.31-.29-.12-.49-.26-.62-.44-.13-.17-.19-.39-.19-.66,0-.42.18-.75.55-1,.37-.25.85-.38,1.45-.38.44,0,.85.08,1.24.25Z" fill="#fff"/>
    <path d="M122.98,116.16c.38.16.68.38.89.63l-.26.28c-.2-.23-.47-.42-.8-.55-.33-.14-.69-.21-1.07-.21-.48,0-.87.09-1.16.27-.29.18-.44.42-.44.73,0,.18.05.34.15.46.1.12.27.22.5.31.23.09.57.17,1.01.26.48.09.86.19,1.13.3.27.11.46.24.58.41.12.16.18.37.18.62,0,.41-.18.73-.53.97-.36.24-.84.36-1.44.36-.39,0-.73-.05-1.03-.16-.3-.11-.58-.27-.85-.48l.24-.3c.24.19.48.33.74.42.25.09.55.13.9.13.5,0,.89-.08,1.16-.25.27-.16.41-.4.41-.69,0-.18-.05-.32-.14-.43-.09-.11-.25-.2-.46-.28-.21-.08-.53-.16-.93-.24-.51-.09-.91-.2-1.19-.31-.29-.12-.49-.26-.62-.44-.13-.17-.19-.39-.19-.66,0-.42.18-.75.55-1,.37-.25.85-.38,1.45-.38.44,0,.85.08,1.24.25Z" fill="#fff"/>
  </g>
</svg>