<?xml version="1.0" encoding="UTF-8"?>
<svg id="Layer_1" data-name="Layer 1" xmlns="http://www.w3.org/2000/svg" viewBox="0 0 500 500">
  <path d="M172.57,283.48c-1.56-2.5-9.65-2.94-7.13-5.79.58-.66,15.47-3.48,17.81-4.15.52,1.49-1.32,7.12,1.35,6.64,2.71-.49,8.21-4.97,10.89-5.61,6.17-1.47,14.81.76,18.93,5.18,17.78,19.05-10,49.36-29.39,41.83-.21-.08-.14-1.29-1.78-.82.58,5.77-1.22,12.94.89,18.22.49,1.23.2,1.99,1.81,2.86,3.16,1.72,8.88-.35,7.1,4.59h-27.61c-4.08-3.61,6.31-3,7.12-6.63v-56.32ZM184.15,285.14c-.52.78-.77.74-.94,1.98-.68,5.06-.55,18.14-.01,23.37.16,1.58.12,1.52.95,2.81,1.3,2.05,4.2,3.05,6.66,3.33,25.34,2.93,23.15-37.82,2.04-35.48-1.93.21-7.69,2.5-8.69,3.99Z" fill="#e01520"/>
  <path d="M290.97,320.26c-1.04-6.99,6.39-1.05,7.24-7.57.56-4.29.69-24.14-.06-28.02-.68-3.51-8.13-2.84-5.51-6.76.45-.67,13.49-2.92,15.52-4.08l.42,7.21c5.33-2.69,9.27-7.53,15.82-7.02,7.77.61,12.18,6.4,12.98,13.81.75,6.9-1.49,20.69.16,26.25,1.08,3.64,7.61.33,6.24,6.16h-23.21c-1.3-5.88,5.01-2.43,6.22-6.19,1.7-5.29,1.97-26.61-1.85-30.59s-15.48-.98-16.35,3.58c-.58,3.03-.57,23.32,0,26.37.9,4.75,7.65.7,6.38,6.82h-24.01Z" fill="#010101"/>
  <path d="M289.54,313.95c2.47,2.52-7.33,8.32-9.21,8.49-2.93.26-7.42-2.83-7.41-6.12-3.38,2.13-7.72,5.62-11.83,5.99-11.24,1.01-18.65-16.22-6.9-21.96,3.42-1.67,15.23-4.65,17.18-6.55,3.21-3.13-.98-12.4-6.14-12.91-7.39-.73-6.54,9.85-9.44,10.81-2.68.88-6.95-1.59-7.21-4.37-.45-4.92,16.86-12.22,21.39-11.94,17.89,1.11,9.04,25.83,12.19,36.06,1.83,5.92,6.34,1.45,7.38,2.51ZM272.15,298.13c-6.34,1.58-17.75,5.61-12.23,14.21,3.57,5.56,12.23,1.61,12.23-.36v-13.84Z" fill="#010101"/>
  <path d="M409.67,278.24c5.3,6.2,1.18,25.18,2.96,33.3,1.18,5.38,4.54,2.06,6.76,2.5,3.71.73,1.08,3.29-.87,4.66-5.74,4.02-12.75,6.18-15.29-2.36-6.19,3.57-9.08,7.56-16.69,5.45-9.91-2.75-13.29-17.09-3.49-21.88,3.78-1.85,18.63-5.24,19.36-8.98.97-4.99-2.43-11.84-8-12.04-6.5-.24-6.82,9.8-8.42,10.81-3.84,2.41-10.21-1.85-7.66-6.15,1.66-2.79,14.57-9.24,17.91-9.64,3.91-.46,10.89,1.36,13.43,4.33ZM402.41,297.17c-6.97,2.14-16.6,4.68-13.5,13.93,2.78,8.28,13.5,2.49,13.5.65v-14.58Z" fill="#1a8b41"/>
  <path d="M466.18,275.82c.99.28,1.68,2.68,1.21,3.22-.58.68-5.24-.8-4.83,4.35l9.27,24.76c1.14-3.73,10.56-25.52,9.23-27.42-.75-1.07-7.22.19-5.6-4.91h19.4c1.15,4.84-3.21,3.05-6.01,5.71-3.39,3.21-17.49,37.26-20.41,44.25-2.81,6.73-5.04,13.8-7.44,20.69-3.6,2.16-10.39-.73-9.66-5.4.39-2.5,5.61-4.96,7.82-7.59,2.08-2.48,6.74-10.3,6.44-13.41-.47-4.76-9.53-27.09-12.07-32.41-.83-1.73-2.19-5.04-3.49-6.2-2.68-2.38-7.1-.41-6.09-5.63,5.76,1.05,17.24-1.41,22.23,0Z" fill="#1a8b41"/>
  <path d="M439.41,247.27v67.78c0,2.31,9.04.98,7.31,5.28h-25.16c.15-.83-.26-2.86.05-3.2.71-.78,6.33,1.05,7.2-4.57-1.4-17.41,2.05-38.19.1-55.19-.57-5-5.72-2.64-6.99-4.37-.39-.54-.59-2.19-.36-2.48.57-.7,15.5-2.83,17.86-3.25Z" fill="#1a8b41"/>
  <path d="M235.96,248.12v64.95c0,5.09,9.92,1.67,8.07,7.67h-25.01c-.57-7.37,6.22-.64,7.16-8.55,1.51-12.68,1.03-38.46.13-51.59-.71-10.46-7.03-1.9-7.3-10.05,5.87.68,11.12-2.84,16.95-2.42Z" fill="#010101"/>
  <path d="M361.14,261.31v13.9c2.7.49,11-1.21,12.04,1.22.07.17-.4,3.69-.59,3.69h-11.45v30.67c0,3.74,3.77,4.8,6.87,4.44,2.06-.24,7.12-3.49,6.11,1.18-.39,1.81-11.29,5.97-13.54,5.96-5.16-.04-10.07-5.84-10.07-10.76v-31.49c0-.37-6.44.27-7.36,0-1.08-5.65,6.99-4.55,7.36-4.9.25-.24-.24-4.8.01-6.12.34-1.81,7.87-10.44,10.61-7.79Z" fill="#1a8b41"/>
  <path d="M245.37,352.71c1.46,1.68-3.44,6.99,5,6.24.34,2.59-4.41.63-5,1.24-.41.42-.07,10.27.38,11.69,1.03,3.29,2.13,1.82,4.62,2.05-.11,1.99-2.98,2.98-4.6,2.97-7.02-.06-3.69-12.12-4.5-16.25-.18-.9-1.88-.36-2.55-.46,3.53-1.97,1.99-6.96,6.65-7.47Z" fill="#010101"/>
  <path d="M91.85,283.61c-1.82-3.41-5.81-2.49-6.39-3.36-.27-.4-.23-2.93-.07-3.1.55-.62,14.13-2.42,16.22-3.3v7.32c8.05-7.1,21.78-12.66,27.28.04,6.85-2.69,9.43-7.88,17.87-7.4,7.77.45,11.07,5.19,12.58,12.24,1.07,7.59-1.8,21.07.81,27.64,2.19,5.51,6.69.7,5.69,6.5h-22.76c-.97-6.04,4.25-2.23,6.5-6.5.36-.69.7-.69.86-1.95.71-5.72.13-16.03-.86-21.63-1.71-9.7-6.12-11.8-15.19-7.47-6.46,3.08-3.55,3.45-3.47,8.66.1,5.91-1.03,16.71.14,21.81,1.31,5.71,7.74,1.43,6.33,7.09h-23.58c-1.65-5.67,5.63-3.23,6.5-5.47,1.57-4.03,1.24-25.28-.39-29.5-2.16-5.61-8.45-5.35-13.24-3.49-.26.1-4.08,3.2-4.25,3.5-.4.71-.71.69-.86,1.95-.65,5.52-.54,18.9,0,24.56.14,1.49.05,1.5.87,2.76,2.04,3.15,5.85-.29,5.69,5.69h-23.58c-.69-6.96,4.94-1.13,7.32-7.32.41-1.08.7-1.09.87-2.75.54-5.41.64-19.29-.01-24.57-.15-1.25-.49-1.25-.86-1.95Z" fill="#e01520"/>
  <path d="M48.48,262.67c3.32-.21,7.28-.14,10.63,0,.27.01.55-.01.82,0,5.68.28,11.34.82,16.61,3.42,4.24,2.09,7.24,4.99,6.26,10.05-.88,4.55-13.96,8.7-18.09,9.7-3.43.83-6.93,1.58-10.5,1.37.76,4.21,6.4,2.06,10.21,2.46,2.76.28,6.18.94,8.81,1.82,2.31.77,10.52,5.52,7.87,8.72-.23.27-6.13,1.74-6.89,1.76-1.63.05-7.76-.8-9.44-1.21-4.23-1.04-9.99-8-12.54-7.84-3.77.23-13.89,4.66-11.92,9.82,8.49-1.92,16.55-2.41,25.07-.14,1.06.28,9.07,3.12,9.5,3.39.82.51,1.69,4.06,1.28,4.78-.31.54-6.16,3.56-7.24,3.83-1.91.47-3.12.29-4.9.4-4.49.27-8.72.12-13.08-.82-2.67-.57-3.89-.97-6.29-2.29-3.15-1.74-7.55-7.53-8.42,1.15-.73,7.18,6.91,4.02,10.63,2.78,4.79-.36,9.22.17,13.9.82,2.8.38,4.8.13,7.58,1.65.24.13,3.69,3.56,3.76,3.82,1.9,7.23-16.78,4.79-20.37,3.96-2.14-.49-10.3-4.36-11.47-3.35-.18.15-2.44,3.83-2.42,4.07.39,6.83,11.13,1,15.87,1.33.59.04,9.15,2.22,9.68,2.45.86.37,1.12,1.63,1.86,2.44,1.16,1.27,2.56-.03,2.01,3.57-1.03,6.75-11.54,5.42-16.32,4.19-4.27-1.1-7.35-3.44-11.43-4.5,1.12,11.47,17.39,4.32,22.07,13.89l-17.61-4.87c-3-1.06-6.76-4.6-6.93-7.88-.1-1.86,1.86-3.31,1.65-3.58-.08-.11-1.62-.18-2.48-1.2-5.94-6.98.81-10.09.65-12.31-.13-1.71-4.92-1.91-3.71-8.79.67-3.82,4.4-6.26,4.47-6.66.13-.87-.8-3.14-.63-4.99.35-3.68,3.36-5.2,6.03-7.1.84-1.56,8.65-1.73,7.92-3.5-1.01-2.47-11.94-4.69-15.48-6.6-3.61-1.94-10.75-6.43-6.96-10.96,2.09-2.5,10.82-.56,13.72.93.97.5,5.45,4.18,6.04,5.01.48.67,0,2,.5,2.75.66.98,3.23,4.53,3.85,4.81,2.54,1.12,16.59-2.53,19.87-3.83,13.83-5.47,10.3-12.39-2.74-14.59-5-.85-8.71-.85-13.9-.82-6.32.03-12.52.34-18.8.81,2.72-3.36,7.48-3.83,11.45-4.08ZM46.02,283.1c-1.73-7.47-8.47-9.88-15.53-8.98.95,3.27,13.47,10.8,15.53,8.98ZM79.54,298.63c-5.26-5.98-13.56-7.22-21.25-6.53-1.18,1.05,5.45,5.84,6.49,6.18,2.31.74,13.32,1.78,14.76.35ZM74.63,310.07c2.16-3.16-11.85-5.45-13.58-5.61-6.3-.59-12.16.35-18.29,1.54,8.47,9.16,21.16,9.77,31.88,4.06ZM69.73,323.97c1.52-2.03-5.13-4.43-6.32-4.7-6.03-1.35-13.16-1.44-19.01.63l11.11,4.82c2.51.75,12.89,1.04,14.23-.75ZM42.76,332.96c3.25,2.53,20.99,10.75,22.81,4.38,1.71-5.98-13.02-8.02-16.62-6.75l-6.19,2.38Z" fill="#e01520"/>
  <path d="M42.8,260.51c-3.23-.27-6.95.71-6.76-3.27,7.47.2,14.86.82,22.42.68,3.31-.06,8.04-1.56,10.91-.03,3.48,1.84-9.66,3.43-10.53,3.94-.28-.01-.56,0-.84,0-4.72-1.01-10.27-.9-15.2-1.31Z" fill="#e01520"/>
  <path d="M69.31,225.96c-.36.69-2.73,1.98-2.7,2.14.21,1.11,1.82,3.2,2.18,5.38,1.24,7.38-.62,16.21,4.6,22.25-2.87.39-3.77-1.92-4.58-4.11-1.56-4.18-2.28-19.01-4.1-20.87-1.65-1.69-6.69.6-9.11.77-3.62.26-7.33-.15-10.95,0l15.12-3.03c.19-1.03-1.35-1.15-2.08-1.3-3.16-.67-15.53-2.4-16.8,1.14-1.16,3.23-1.02,10.03-1.76,13.94-.6,3.16-1.12,6.59-2.64,9.46-1.34,2.53-3.89,5.87-6.97,4.75.91-1.41,2.53-1.83,3.77-3.4,7.66-9.74-3.81-31.21,14.83-35.1,5.26-1.09,26.05-1.4,21.18,7.97ZM63.19,221.69c-3.76-.65-10.89,0-15.13,0-.12,0-2.21.74-1.89,1.51,4.11-.07,8.36.08,12.41.84,3.57.67,5.2,3.86,8-.45,0-.43-2.79-1.79-3.39-1.89Z" fill="#e01520"/>
  <path d="M94.32,190.02c-.21.45-6.54,6.53-7.21,6.89-8.14,4.43-15.27,2.16-23.41,2.48-4.57.18-8.39,1.72-13.84,1.34-2.55-.17-10.09-2.49-11.14-2.27-.86.18-1.53,1.65-2.72,2.04-5.29,1.72-11.43,1.44-15.76-2.34-5.13-4.47-15.25-33.36-15.81-40.53-.24-3.11.91-16.49,3.31-17.99,4.05-2.52,1.54,5.47,1.47,7.5-.45,12.2,2.05,24.41,6.22,35.7,3.6,9.75,7.22,18.92,19.57,15.44.29-3-3.3-1.1-4.04-4.43-.45-2.01,1.06-2.58,2.88-2.73.4-.03.29,1.34,1.35,1.77,3.92,1.57,6.57,1.65,10.49,2.36,2.04.37,4.68,3.28,6.22-.18-1.36,1-11.42-6.52-6.84-6.43,1.81.04,11.42,7.11,15.3,7.12,3.3,0,11.58-5.72,15.52-6.91,1.79-.54,9.9-1.81,10.64-1.03.11.11.07,3.02-.06,3.16-.33.36-7.49,1.28-9.61,2.06s-3.71,3.19-6.43,2.83c-2.77,2.65,10.09-.49,10.9-.77,12.47-4.31,10.36-13.59,12.83-24.19,2.4-10.26,7.47-19.3,2.45-29.8-5.6-11.71-17.9-8.24-26.98-2.79.76,1.75,6.96,4.11,7.2,4.46.49.71-.2,2.92-1.22,3.18-1.22.31-7.88-4.31-10.04-5.21-6.47-2.69-13.44-3.53-20.42-2.75-2.65.3-12.85,4.42-13.36,3.94-1.5-1.42.11-3.08,1.33-3.9,8.18-5.47,21.94-5,31.03-2.32,1.16.34,4.43,2.34,4.63,2.19.11-.08.28-1.61,1.15-2.47,1.04-1.03,2.74-1.13,2.89-2.35-12.57-4.17-24.11-9.35-37.02-2.41,3.83,8.78-2.18,3.59-4.32,3.94-.66.11-.76,1.59-1.35,2.02-4.4,3.29-8.39,6.02-14.5,4.12-2.83-.88-5.79-5.05-1.33-4.32,3.09.51,2.39,1.96,6.98.23l6.46-4.39c-2.93.16-5.36-1.07-8.36-.77-2.24.23-7.71,3.18-8.14,3.15-3.57-.21,1.16-5.52,3.85-6.59,7.37-2.94,10.86,1.82,16.22.98,1.81-.28,6.03-3.52,8.53-4.4,11.25-3.96,20.85.34,31.13,5.05,1.28.59,2.31,2.26,3.22,2.5.99.25,4.5-1.8,6.48-2.12,13.36-2.16,20.78,3.93,21.91,17.11.96,11.19-2.91,18.12-5.43,28.34-1.12,4.54-.73,9.86-2.84,14.48Z" fill="#e01520"/>
  <path d="M171.87,375.99c-.66-2.97,2.7-.87,3.81-2.44.65-.91.64-20.83-.01-21.79-.84-1.24-3.73.2-2.96-2.44h18.75c1.1,0,5.74,3.06,6.63,4.2,4.86,6.19,3.13,15.57-3.43,19.83-.73.47-4.06,2.63-5.7,2.63h-17.08ZM180.21,352.24c-.78,2.53,0,15.29,0,19.16,0,1.91,2.91,2.93,4.6,2.95,13.82.19,15.66-23.03,0-23.42-1.32-.03-4.14-.15-4.59,1.31Z" fill="#010101"/>
  <path d="M333.3,357.27v16.55c6.99,2.26,6.75-6.31,5.81-11.19-.46-2.36-3.35-1.43-2.51-4.52,1.9.61,4.74-1.09,6.12-.89.59.09.41,1.75.92,1.74,1.82-.02,3.37-3.16,7.84-1.25,5.83,2.49-1.23,15.01,5.8,17.35l-9.92.41c-.47-2.29.84-1.65,2.48-1.65v-12c0-2.17-6.62-2.17-6.62,0v12c0,.16,3.01-.41,1.65,1.65h-19.03c-.76-2.62,2.11-1.19,2.94-2.42.55-.82.66-9.01.38-10.43-.53-2.73-8.09-4.33,4.12-5.35Z" fill="#010101"/>
  <path d="M313.73,356.89l-4.67-4.94c-18.2-7.4-17.44,25.15-2.25,21.55,4.05-.96,4.21-4.97,7.69-5.83.33.36-1.39,6.53-2.07,6.95-2.07,1.29-10.56.9-13.18.22-12.68-3.29-11.69-23.99,3.32-25.65,6.79-.75,12.89-.88,11.16,7.7Z" fill="#010101"/>
  <path d="M225.89,374.03c.07.11,3.38-.02,1.55,1.55-.32.28-8.21.26-8.55,0-1.81-1.38,2.43-1.78,2.76-2.27.66-.98.62-9.89-.06-10.97-.57-.9-2.73-.35-1.93-3.09,1.78.57,4.45-1.03,5.76-.83.56.08.38,1.64.86,1.64,1.13-.01,2.12-1.67,4.66-1.68,8.26-.03,3.69,10.01,5.17,14.4.46,1.36,3.59,1.01,1.84,2.81h-7.77c-1.43-1.77.56-1.74,1.94-1.56v-11.28c0-2.04-6.22-2.04-6.22,0,0,1.77-.31,10.81,0,11.28Z" fill="#010101"/>
  <path d="M267.72,373.52v.78c-.79.04-2.24,1.55-3.6,1.59-1.77.06-2.41-1.32-3.23-1.46-1.03-.18-5.47,3.91-8.13-.48-4.65-7.69,7.35-6.94,7.93-10.26.49-2.8-1.72-4.79-4.01-3.17-1.13.8-.98,6.16-4.66,2.38-1.05-3.92,10.73-7.93,12.39-2.17,1.3,4.54-2.41,10.94,3.3,12.78ZM261.44,366.47c-3.56-.05-8.21,4.48-3.92,6.7,3.71,1.92,4.5-4.04,3.92-6.7Z" fill="#010101"/>
  <path d="M205.9,365.64c1.16,3.84,1.68,7.83,6.82,7.28.84-.09,5.63-3.07,4.52-.42-2.62,6.25-15.1,5.09-15.32-4.94-.23-10.65,14.46-13.65,15.31-5.51.63,6.05-7.33,2.8-11.33,3.58ZM213.19,364.01c2.64-2.74-6.47-9.3-6.48,0,1.18-.19,6.2.29,6.48,0Z" fill="#010101"/>
  <path d="M322.03,348.77v25.83c1.6,0,2.88-.62,2.42,1.61-2.53-.14-5.15.21-7.68,0-5.71-.47.61-1.99.87-2.36.57-.81.71-17.86.34-19.82-.4-2.12-2.55-2.36-2.4-4.45l6.45-.81Z" fill="#010101"/>
  <path d="M267.87,374.41c1.85.12,2.93.04,3.32-2.07.46-2.42.44-16.64-.02-19.07-.41-2.18-2.62-2.43-2.47-4.58l6.64-.83v26.56c1.65,0,2.96-.64,2.49,1.66-2.86.97-7.99-.93-9.96-.83v-.83Z" fill="#010101"/>
  <path d="M383.81,358.54c.45.68-.22,2.93-1.22,3.17-1.43.36-2.63-1.32-4-1.58-7.71-1.41-7.29,12.74.07,12.76,1.34,0,7.08-1.99,4.77.77-6.3,7.56-20.43-1.9-12.37-12.37,2.27-2.95,11.09-5.25,12.75-2.76Z" fill="#010101"/>
  <path d="M365.41,356v17.63c1.75,0,3.14-.68,2.64,1.76-2.76-.15-5.63.23-8.39,0-6.15-.5.03-1.87.44-2.18,1.24-.92,1.28-9.65.91-11.51-.56-2.91-8.62-4.62,4.39-5.7Z" fill="#010101"/>
  <path d="M332.55,354.3c-2.23,2.22-6.95-4.73-.71-4.08.88.59.94,3.85.71,4.08Z" fill="#010101"/>
  <path d="M364.52,354.53c-2.67,2.67-8.35-5.68-.85-4.9,1.06.7,1.13,4.63.85,4.9Z" fill="#010101"/>
</svg>